<?xml version="1.0" standalone="no"?><!DOCTYPE svg PUBLIC "-//W3C//DTD SVG 1.1//EN" "http://www.w3.org/Graphics/SVG/1.1/DTD/svg11.dtd"><svg t="1750834232069" class="icon" viewBox="0 0 1024 1024" version="1.1" xmlns="http://www.w3.org/2000/svg" p-id="2598" xmlns:xlink="http://www.w3.org/1999/xlink" width="200" height="200"><path d="M485.952 225.472m-186.752 0a186.752 186.752 0 1 0 373.504 0 186.752 186.752 0 1 0-373.504 0Z" fill="#1296db" p-id="2599"></path><path d="M518.592 762.304a257.792 257.792 0 0 1 257.536-257.536c8.32 0 16.576 0.512 24.704 1.28a424.192 424.192 0 0 0-101.76-83.2 80 80 0 0 0-79.168 0.32 277.44 277.44 0 0 1-268.096 0 79.936 79.936 0 0 0-79.168-0.32 421.632 421.632 0 0 0-208.768 364.096c0 138.88 299.712 195.008 541.952 168.32a256.832 256.832 0 0 1-87.232-192.96z" fill="#1296db" p-id="2600"></path><path d="M776.128 543.68a218.624 218.624 0 1 0 218.624 218.624 218.88 218.88 0 0 0-218.624-218.624z m149.504 178.048l-154.432 145.6a40.768 40.768 0 0 1-28.096 11.2h-1.6a40.768 40.768 0 0 1-28.8-13.44l-78.528-86.72a25.984 25.984 0 1 1 38.4-34.816l70.976 78.464 146.368-137.984a25.984 25.984 0 0 1 35.648 37.76z" fill="#1296db" p-id="2601"></path></svg>