<?xml version="1.0" standalone="no"?><!DOCTYPE svg PUBLIC "-//W3C//DTD SVG 1.1//EN" "http://www.w3.org/Graphics/SVG/1.1/DTD/svg11.dtd"><svg t="1750834426467" class="icon" viewBox="0 0 1024 1024" version="1.1" xmlns="http://www.w3.org/2000/svg" p-id="6576" xmlns:xlink="http://www.w3.org/1999/xlink" width="200" height="200"><path d="M512 121.6c107.776 0 205.4144 43.7248 276.0704 114.3296l12.9024 13.568A389.12 389.12 0 0 1 902.4 512a389.2736 389.2736 0 0 1-114.3296 276.0704A389.2736 389.2736 0 0 1 512 902.4a389.12 389.12 0 0 1-262.5024-101.4272l-13.568-12.9024A389.2736 389.2736 0 0 1 121.6 512c0-107.776 43.7248-205.4144 114.3296-276.0704l13.568-12.9536A389.12 389.12 0 0 1 512 121.6z" fill="#F5222D" p-id="6577"></path><path d="M512 682.7008a53.3504 53.3504 0 1 1 0 106.7008 53.3504 53.3504 0 0 1 0-106.7008z m0-407.5008c17.664 0 32 14.336 32 32v256a32 32 0 1 1-64 0V307.2c0-17.664 14.336-32 32-32z" fill="#FFFFFF" p-id="6578"></path></svg>